<?xml version="1.0" encoding="UTF-8" standalone="no"?>
<svg xmlns="http://www.w3.org/2000/svg" viewBox="0 0 800 800">
    <path fill="#0084ff" d="M400 0C173.7 0 0 165.1 0 388c0 116.6 47.8 217.4 125.6 287 6.5 5.8 10.5 14 10.4 22.8l-2.1 71.2c-.7 24.3 24.6 40.5 47.1 30.3l79.3-36.1c6.8-3.1 14.4-3.9 21.7-2.2 36.9 8.7 76.3 13.2 117.7 13.2 226.3 0 400-165.1 400-388S626.3 0 400 0z"/>
    <path fill="#fff" d="M159.8 501.5l117.5-186.4c18.7-29.7 58.3-37.4 87-17l93.7 67.1c8.6 6.2 20.2 6.2 28.9.1l126.7-92.2c16.8-12.2 38.8 7.2 27.6 24.4L523.7 483.9c-18.7 29.7-58.3 37.4-87 17l-93.7-67.1c-8.6-6.2-20.2-6.2-28.9-.1l-126.7 92.2c-16.7 12.2-38.8-7.2-27.6-24.4z"/>
</svg>