<?xml version="1.0" encoding="UTF-8"?>
<svg width="256px" height="256px" viewBox="0 0 256 256" version="1.1" xmlns="http://www.w3.org/2000/svg">
    <g stroke="none" stroke-width="1" fill="none" fill-rule="evenodd">
        <path d="M128,0 C57.307,0 0,54.486 0,121.593 C0,193.332 57.307,240 128,240 C198.693,240 256,193.332 256,121.593 C256,54.486 198.693,0 128,0 Z" fill="#0084FF"/>
        <path d="M129.315,65 C76.56,65 36,102.675 36,145.161 C36,169.647 46.779,190.764 64.314,205.357 C66.294,206.995 67.384,209.499 67.384,212.129 L67.384,228.538 C67.384,232.764 71.318,235.844 75.37,234.838 L94.654,230.81 C96.931,230.182 99.32,230.433 101.431,231.507 C110.096,235.235 119.498,237.321 129.315,237.321 C182.07,237.321 222.63,199.646 222.63,157.161 C222.63,114.675 182.07,65 129.315,65 Z" fill="#FFFFFF"/>
        <path d="M79,176.9 L117.667,137.087 C120.982,133.699 126.325,133.699 129.64,137.087 L155.667,163.809 C157.205,165.382 159.493,165.633 161.289,164.418 L206.026,135.816 C209.598,133.515 214.048,137.999 211.735,141.553 L173.068,181.366 C169.753,184.754 164.41,184.754 161.095,181.366 L135.068,154.644 C133.53,153.071 131.242,152.82 129.446,154.035 L84.709,182.637 C81.137,184.938 76.687,180.454 79,176.9 Z" fill="#0084FF"/>
    </g>
</svg>